<svg xmlns="http://www.w3.org/2000/svg" viewBox="0 0 255.14 255.14"><defs><style>.cls-1{fill:#7c1621;}.cls-2{fill:#fff;}</style></defs><title>16_9</title><g id="Layer_2" data-name="Layer 2"><g id="Layer_1-2" data-name="Layer 1"><circle class="cls-1" cx="127.57" cy="127.57" r="127.57"/><path class="cls-2" d="M45.1,101H60.26v53.2H50.2V110.48h-11Z"/><path class="cls-2" d="M95.89,99.63l8.62,4.31L95.2,122a15.49,15.49,0,0,1,11.5,4.85,16.53,16.53,0,0,1,4.74,12,16.54,16.54,0,0,1-16.6,16.6,15.89,15.89,0,0,1-12-5A16.12,16.12,0,0,1,78.05,139a17.21,17.21,0,0,1,.75-5,49.73,49.73,0,0,1,3.41-7.66Zm-1.27,32a6.26,6.26,0,0,0-4.74,2.05A7.72,7.72,0,0,0,90,143.94a6.29,6.29,0,0,0,4.69,2.1A6.53,6.53,0,0,0,99.5,144a7.66,7.66,0,0,0,.06-10.32A6.6,6.6,0,0,0,94.62,131.6Z"/><path class="cls-2" d="M147,113.81a5.66,5.66,0,1,1-4,9.67,5.37,5.37,0,0,1-1.66-4,5.67,5.67,0,0,1,5.67-5.68Zm0,30.06a5.53,5.53,0,0,1,4,1.64,5.66,5.66,0,0,1,0,8,5.68,5.68,0,0,1-9.69-4,5.41,5.41,0,0,1,1.66-4A5.53,5.53,0,0,1,147,143.87Z"/><path class="cls-2" d="M198.07,155.51l-8.61-4.27,9.32-18.12a15.54,15.54,0,0,1-11.52-4.84,16.53,16.53,0,0,1-4.75-12,16.69,16.69,0,0,1,28.6-11.62,16.18,16.18,0,0,1,4.79,11.51,17.24,17.24,0,0,1-.74,4.93,51.54,51.54,0,0,1-3.42,7.64Zm1.26-32a6.23,6.23,0,0,0,4.74-2.06A7.71,7.71,0,0,0,204,111.2a6.28,6.28,0,0,0-4.68-2.09,6.55,6.55,0,0,0-4.85,2.07,7.62,7.62,0,0,0,0,10.3A6.55,6.55,0,0,0,199.33,123.54Z"/></g></g></svg>