<svg xmlns="http://www.w3.org/2000/svg" viewBox="0 0 255.14 255.14"><defs><style>.cls-1{fill:#7c1621;}.cls-2{fill:#fff;}</style></defs><title>1_1</title><g id="Layer_2" data-name="Layer 2"><g id="Layer_1-2" data-name="Layer 1"><circle class="cls-1" cx="127.57" cy="127.57" r="127.57"/><path class="cls-2" d="M71.09,100.46H86.25v53.21H76.19V110h-11Z"/><path class="cls-2" d="M131.5,113.3a5.66,5.66,0,1,1-4,9.68,5.66,5.66,0,0,1,0-8A5.48,5.48,0,0,1,131.5,113.3Zm0,30.06a5.5,5.5,0,0,1,4,1.65,5.39,5.39,0,0,1,1.66,4,5.68,5.68,0,1,1-11.35,0,5.39,5.39,0,0,1,1.66-4A5.5,5.5,0,0,1,131.5,143.36Z"/><path class="cls-2" d="M174.76,100.46h15.15v53.21h-10V110h-11Z"/></g></g></svg>