<svg xmlns="http://www.w3.org/2000/svg" viewBox="0 0 206.12 206.12"><defs><style>.cls-1{fill:#7c1620;}.cls-2{fill:#fff;}</style></defs><title>2_3</title><g id="Layer_2" data-name="Layer 2"><g id="Layer_1-2" data-name="Layer 1"><circle class="cls-1" cx="103.06" cy="103.06" r="103.06"/><path class="cls-2" d="M57.35,95.75H49.72Q50,89.1,53.9,85.29a13.56,13.56,0,0,1,9.93-3.81,13.49,13.49,0,0,1,6.61,1.57,12.62,12.62,0,0,1,6.3,10.61,17.88,17.88,0,0,1-2.08,7.88,42.93,42.93,0,0,1-7.62,10l-4.61,4.87H77.08v7.23H48.6v-3.74l12.72-13a37.37,37.37,0,0,0,6.13-7.5A11.1,11.1,0,0,0,69,94.27a5.23,5.23,0,0,0-1.58-3.92,5.51,5.51,0,0,0-4.06-1.55,5.37,5.37,0,0,0-4.19,1.87A7.73,7.73,0,0,0,57.35,95.75Z"/><path class="cls-2" d="M103.45,92.43a4.39,4.39,0,0,1,4.39,4.39,4.39,4.39,0,0,1-4.39,4.35,4.24,4.24,0,0,1-3.1-1.27,4.15,4.15,0,0,1-1.29-3.08,4.39,4.39,0,0,1,4.39-4.39Zm0,23.22a4.23,4.23,0,0,1,3.1,1.27,4.39,4.39,0,1,1-6.2,0A4.24,4.24,0,0,1,103.45,115.65Z"/><path class="cls-2" d="M138.32,92.65h-7.51a12.23,12.23,0,0,1,12.68-11.17A11.92,11.92,0,0,1,152,84.69a10.11,10.11,0,0,1,3.42,7.63,8.86,8.86,0,0,1-1.49,5,10.67,10.67,0,0,1-4.34,3.66,11,11,0,0,1,5.85,3.9,10.49,10.49,0,0,1,2.11,6.55,12.37,12.37,0,0,1-4.08,9.37,14.53,14.53,0,0,1-10.39,3.85,13.54,13.54,0,0,1-9.76-3.62,14.23,14.23,0,0,1-4.13-9.85h7.74a7.72,7.72,0,0,0,2.22,4.73,6.79,6.79,0,0,0,8.88-.21,5.74,5.74,0,0,0,1.81-4.3,5.82,5.82,0,0,0-2.43-4.72q-2.43-1.94-7-2V98a12.63,12.63,0,0,0,4.21-.88,5.24,5.24,0,0,0,2.15-1.8,4.34,4.34,0,0,0,.77-2.43,3.62,3.62,0,0,0-1.18-2.78A4.27,4.27,0,0,0,143.24,89a5,5,0,0,0-3.05,1A5.14,5.14,0,0,0,138.32,92.65Z"/></g></g></svg>