<svg xmlns="http://www.w3.org/2000/svg" viewBox="0 0 206.12 206.12"><defs><style>.cls-1{fill:#7c1620;}.cls-2{fill:#fff;}</style></defs><title>3_2</title><g id="Layer_2" data-name="Layer 2"><g id="Layer_1-2" data-name="Layer 1"><circle class="cls-1" cx="103.06" cy="103.06" r="103.06"/><path class="cls-2" d="M57.71,92.54H50.12a12.56,12.56,0,0,1,3.3-7.4,12.72,12.72,0,0,1,9.52-3.89,12,12,0,0,1,8.57,3.25A10.23,10.23,0,0,1,75,92.2a9,9,0,0,1-1.52,5.06,10.78,10.78,0,0,1-4.39,3.7A11.12,11.12,0,0,1,75,104.9a10.64,10.64,0,0,1,2.13,6.62A12.52,12.52,0,0,1,73,121a14.71,14.71,0,0,1-10.51,3.88,13.68,13.68,0,0,1-9.85-3.65,14.42,14.42,0,0,1-4.18-10h7.82a7.88,7.88,0,0,0,2.25,4.79,6.86,6.86,0,0,0,9-.21,6,6,0,0,0-.64-9.12q-2.46-1.95-7.09-2V97.94A12.75,12.75,0,0,0,64,97.05a5.31,5.31,0,0,0,2.18-1.82A4.35,4.35,0,0,0,67,92.77,3.69,3.69,0,0,0,65.79,90a4.38,4.38,0,0,0-3.11-1.12,5.1,5.1,0,0,0-3.08,1A5.2,5.2,0,0,0,57.71,92.54Z"/><path class="cls-2" d="M103.4,92.32a4.42,4.42,0,1,1,0,8.83,4.3,4.3,0,0,1-3.14-1.28,4.43,4.43,0,0,1,3.14-7.55Zm0,23.46a4.27,4.27,0,0,1,3.13,1.29,4.19,4.19,0,0,1,1.3,3.12,4.43,4.43,0,1,1-7.57-3.12A4.31,4.31,0,0,1,103.4,115.78Z"/><path class="cls-2" d="M137.73,95.68H130q.3-6.72,4.22-10.58A14.93,14.93,0,0,1,151,82.84a11.92,11.92,0,0,1,4.63,4.61,12.06,12.06,0,0,1,1.74,6.11,18.1,18.1,0,0,1-2.1,8,43.7,43.7,0,0,1-7.7,10.08l-4.66,4.92h14.8v7.31H128.9V120l12.84-13.1a37.11,37.11,0,0,0,6.2-7.58,11.12,11.12,0,0,0,1.54-5.18,5.35,5.35,0,0,0-1.59-4,5.65,5.65,0,0,0-4.11-1.56,5.45,5.45,0,0,0-4.24,1.89A7.86,7.86,0,0,0,137.73,95.68Z"/></g></g></svg>