<svg xmlns="http://www.w3.org/2000/svg" viewBox="0 0 255.14 255.14"><defs><style>.cls-1{fill:#7c1621;}.cls-2{fill:#fff;}</style></defs><title>free_size_1</title><g id="Layer_2" data-name="Layer 2"><g id="Layer_1-2" data-name="Layer 1"><circle class="cls-1" cx="127.57" cy="127.57" r="127.57"/><path class="cls-2" d="M59.65,63.31H84.22v9.18H69v9H84.22v9H69v22.29H59.65Z"/><path class="cls-2" d="M93.24,63.31h10q8.19,0,11.68,1.46a12.06,12.06,0,0,1,5.6,4.86,14.94,14.94,0,0,1,2.11,8.05,13.71,13.71,0,0,1-2.34,8.16,14.13,14.13,0,0,1-7,5l11.73,22h-10.3l-11.13-21h-.87v21H93.24Zm9.42,19.35h3c3,0,5.06-.4,6.19-1.18a4.44,4.44,0,0,0,1.69-3.92,4.79,4.79,0,0,0-.84-2.82A4.63,4.63,0,0,0,110.42,73a17,17,0,0,0-5.17-.53h-2.59Z"/><path class="cls-2" d="M132.62,63.31h27v9.22H142v9h17.67v9H142v13h17.67v9.26h-27Z"/><path class="cls-2" d="M168.47,63.31h27v9.22H177.82v9h17.67v9H177.82v13h17.67v9.26h-27Z"/><path class="cls-2" d="M95.16,147.81l-7,6.16q-3.68-5.11-7.49-5.11a4.57,4.57,0,0,0-3,1,2.88,2.88,0,0,0-1.18,2.24,3.82,3.82,0,0,0,.84,2.35,65,65,0,0,0,6.91,6.37q5.4,4.5,6.55,5.68A20,20,0,0,1,94.84,172,14,14,0,0,1,96,177.8a13.25,13.25,0,0,1-4.21,10.07,15.39,15.39,0,0,1-11,4,16.41,16.41,0,0,1-9.22-2.59,20.62,20.62,0,0,1-6.72-8.15l7.92-4.78q3.57,6.57,8.23,6.56a6.06,6.06,0,0,0,4.08-1.41,4.2,4.2,0,0,0,1.65-3.26,5.64,5.64,0,0,0-1.25-3.37,35.63,35.63,0,0,0-5.5-5.15q-8.09-6.6-10.45-10.18a13,13,0,0,1-2.36-7.15,11.69,11.69,0,0,1,3.93-8.84,13.66,13.66,0,0,1,9.69-3.68,15.35,15.35,0,0,1,7.06,1.71A25.92,25.92,0,0,1,95.16,147.81Z"/><path class="cls-2" d="M104.35,141.08h9.35v49.51h-9.35Z"/><path class="cls-2" d="M121.68,141.08h30L134,181.54h16.48v9.05H120.23l17.55-40.18h-16.1Z"/><path class="cls-2" d="M158.81,141.08h27v9.22H168.16v9h17.67v9.05H168.16v13h17.67v9.25h-27Z"/></g></g></svg>