<svg xmlns="http://www.w3.org/2000/svg" viewBox="0 0 1500 1500"><defs><style>.cls-1{fill:#7c141f;}.cls-2{fill:#fff;}</style></defs><title>logo2</title><g id="Layer_2" data-name="Layer 2"><g id="Layer_1-2" data-name="Layer 1"><rect class="cls-1" width="1500" height="1500"/><path class="cls-2" d="M856,1163.78v-60.25q-3.87-6.9-51.75-74.61H772.65q0,.75,26.06,38.62,30.51,43.17,30.51,44.77v51.47a.66.66,0,0,0,.75.75h25.41Q856,1164.53,856,1163.78Z"/><path class="cls-2" d="M980.12,1154.62q24.66-15.49,24.65-54.31V1030q0-.57-.75-.66H979.37q-.57,0-.66.66v72.81a50.86,50.86,0,0,1-1.14,12q-6.42,23.52-28.61,23.52h-4a30.7,30.7,0,0,1-11.24-2.17q-18.13-7.27-18.13-33.34V1030c0-.38-.25-.6-.76-.66H890.31a.68.68,0,0,0-.75.66v76.49a63.13,63.13,0,0,0,5.1,24.94q16.33,33,52.13,33Q966.43,1164.35,980.12,1154.62Z"/><path class="cls-2" d="M467.06,1029H438.45q-37.87,94.64-37.87,95.48h-.76q-9.87-26.19-11.17-28.15l-26.57-67.48-28.17.15,37.61,95.48h.27q15.82,39.17,16.7,40h23.8Q462,1042.84,467.06,1029Z"/><path class="cls-2" d="M680.5,1163.73v-134a.67.67,0,0,0-.65-.74H654.8c-.36,0-.61.25-.74.74v88.87h-.66v-.36c-1.95-2.64-3.87-5.23-5.71-7.76l-1.89-2.57q-32.25-43.71-45.89-62.43c-.79-1-1.52-2.06-2.21-3l-3.08-4.22-.56-.77-4.39-6H558.46l30.62,42.42,15.31,21.25,1.11,1.53q49,67.38,49.69,67.77h24.66C680.29,1164.49,680.5,1164.25,680.5,1163.73Z"/><polygon class="cls-2" points="593.53 1124.69 565.56 1086.95 565.56 1162.42 593.53 1162.42 593.53 1124.69"/><path class="cls-2" d="M1104.42,1094.61q2.64-3.4,56.85-65.64l-.66-.38h-31.92q-3.78,3.78-45.9,53.93v23.8q0,1.89,12.47,15.11,33,37.77,37.77,42.49h32.3a.67.67,0,0,0,.76-.75Q1107.34,1097.16,1104.42,1094.61Z"/><polygon class="cls-2" points="1065.98 1154.77 1038 1121.71 1038 1164.49 1065.98 1164.49 1065.98 1154.77"/><polygon class="cls-2" points="414.56 1169.38 390.62 1169.66 402.75 1181.09 423.69 1181.09 486.3 1028.89 472.51 1028.89 414.56 1169.38"/><path class="cls-2" d="M525.42,1163V1030.4c0-.38-.22.06-.66,0H500.58c-.44,0-.69,47.85-.76,48.29V1163a.67.67,0,0,0,.76.76h24.18C525.2,1163.78,525.42,1163.53,525.42,1163Z"/><polygon class="cls-2" points="531.27 1168.69 502.53 1168.69 514.08 1179.74 515.39 1181.09 539.3 1181.09 539.3 1039.31 531.18 1031.09 531.27 1168.69"/><path class="cls-2" d="M739.6,1163V1030.4c0-.38-.22.06-.66,0H714.77c-.44,0-.7,47.85-.76,48.29V1163a.67.67,0,0,0,.76.76h24.17C739.38,1163.78,739.6,1163.53,739.6,1163Z"/><polygon class="cls-2" points="743.54 1168.69 716.72 1168.69 728.27 1179.74 729.58 1181.09 753.49 1181.09 753.49 1039.31 745.37 1031.09 743.54 1168.69"/><polygon class="cls-2" points="686.06 1168.69 659.23 1168.69 670.78 1179.74 672.09 1181.09 696 1181.09 696 1039.31 687.88 1031.09 686.06 1168.69"/><polygon class="cls-2" points="598.92 1168.27 571.81 1168.27 582.96 1179.32 607.6 1179.32 607.6 1139.86 598.92 1131.17 598.92 1168.27"/><polygon class="cls-2" points="1068.87 1168.27 1041.76 1168.27 1052.9 1179.32 1077.55 1179.32 1077.55 1163.93 1068.87 1155.24 1068.87 1168.27"/><polygon class="cls-2" points="861.71 1168.27 834.6 1168.27 845.75 1179.32 870.39 1179.32 870.39 1118.72 861.71 1108.49 861.71 1168.27"/><polygon class="cls-2" points="929.9 1045.92 921.1 1037.61 921.1 1115.48 929.9 1124.28 929.9 1045.92"/><path class="cls-2" d="M1010.15,1106.08c0,.41,0,.81,0,1.22a97.16,97.16,0,0,1-.78,12.51c-2.6,20.35-15.55,38.2-34.63,45.75-27.91,11.06-54.42-1.21-54.42-1.21l11.22,11.51c12,4.61,25.63,4.21,25.63,4.21,15.12,0,36.71-10.85,45.43-20.56,9.74-10.83,16.41-22.49,16.41-37.06v-79.27l-8.88-8.88S1009.65,1082.63,1010.15,1106.08Z"/><polygon class="cls-2" points="1076.4 1111.63 1076.47 1086.78 1064.39 1099.36 1064.31 1119.76 1124.25 1180.45 1149.18 1180.45 1160.23 1169.4 1129.73 1169.4 1076.4 1111.63"/><path class="cls-2" d="M782.24,766.82,619.15,647.07l-71.4,52.41A140.46,140.46,0,0,0,714,925.93L899.36,789.86a140.12,140.12,0,0,1-117.12-23Z"/><path class="cls-2" d="M851.75,679.42h2.67v17.93q0,5.58-5.09,5.58a4.6,4.6,0,0,1-4.49-3q-1.33-3-1.33-9.58,0-5.8,1.82-8.36T851.75,679.42Z"/><path class="cls-2" d="M952.26,521.05,714,346.14A140.46,140.46,0,1,0,547.75,572.59L786.05,747.5A140.45,140.45,0,1,0,952.26,521.05Zm-97.6,202.24q-16,0-23.87-8.37t-7.88-25.32q0-14.05,5.94-21.45t16.36-7.39a41.43,41.43,0,0,1,7,.48v-34.9q0-6.54-15.51-10.42l-6.79-7.76V579.81q0-16.48,16.72-16.48,10.9,0,17.57,3.75t6.91,3.76a.65.65,0,0,0,.73-.73V548.79h25.69v25.44c0,7.12-1.82,12.36-5.46,15.76s-8.76,5.09-15.39,5.09h-2.42c-.49,0-2.3-.81-5.45-2.43a19.57,19.57,0,0,0-8.85-2.42,7.7,7.7,0,0,0-4,.73,3,3,0,0,0-1.09,2.66v7a58.88,58.88,0,0,1,21.33,8.12q9.93,6.18,9.94,14.42v70q0,14.79-8.12,22.42T854.66,723.29Zm43.81-30.07q0,14.78-8.12,22.41c-4.11,3.86-9.6,6.21-16.44,7.14a42.23,42.23,0,0,0,9.31-5.91c5.81-4.7,7.64-13.79,7.64-23.64v-70a18.48,18.48,0,0,0-9.17-15.81,61.8,61.8,0,0,0-14.94-6.31c7.58,1.3,15.18,3.57,21.78,7.69s9.94,8.93,9.94,14.43Zm11.4-119q0,10.65-5.44,15.73c-3.26,3-7.69,4.7-13.31,5a37.61,37.61,0,0,0,5.72-3.94c3.66-3.38,5.42-9.71,5.42-16.81V548.79h7.61Z"/></g></g></svg>