<svg xmlns="http://www.w3.org/2000/svg" viewBox="0 0 1461.61 634.25"><defs><style>.cls-1{fill:#fff;}</style></defs><title>viniyuk_logo</title><g id="Layer_2" data-name="Layer 2"><g id="Layer_1-2" data-name="Layer 1"><path class="cls-1" d="M1068.17,252.24h31.64q47.88,67.71,51.75,74.6v60.25c0,.51-.22.76-.66.76h-25.4a.67.67,0,0,1-.76-.76V335.63q0-1.61-30.5-44.77Q1068.17,253,1068.17,252.24Z"/><path class="cls-1" d="M1185.84,252.61h24.55c.5.07.76.29.76.66v72.82q0,26.06,18.13,33.33a30.68,30.68,0,0,0,11.24,2.18h4q22.2,0,28.62-23.52a51.48,51.48,0,0,0,1.13-12V253.27q.09-.66.66-.66h24.65c.5.07.76.29.76.66v70.36q0,38.82-24.65,54.3-13.7,9.74-33.34,9.73-35.79,0-52.13-33a63,63,0,0,1-5.1-24.93v-76.5A.68.68,0,0,1,1185.84,252.61Z"/><path class="cls-1" d="M707.81,387.88q49.68-121.74,54.78-135.52H734Q696.1,347,696.1,347.84h-.75q-9.87-26.19-11.17-28.15L657.6,252.21l-28.16.15L667,347.84h.27q15.83,39.15,16.7,40Z"/><path class="cls-1" d="M976,253v134c0,.51-.21.76-.65.76H950.71Q950,387.38,901,320l-1.12-1.53-15.3-21.25L854,254.84H885.2l4.39,6,.55.77,3.09,4.21c.69.94,1.42,2,2.2,3q13.65,18.72,45.89,62.43l1.9,2.57q2.76,3.8,5.71,7.76v.36h.65V253q.2-.75.75-.75h25A.68.68,0,0,1,976,253Z"/><polygon class="cls-1" points="861.08 310.27 861.08 385.74 889.06 385.74 889.06 348 861.08 310.27"/><path class="cls-1" d="M1456.79,252.29q-54.21,62.23-56.85,65.63,2.93,2.55,61.67,68.57a.67.67,0,0,1-.76.75h-32.29q-4.72-4.73-37.78-42.5-12.46-13.22-12.47-15.11v-23.8q42.12-50.15,45.9-53.92h31.92Z"/><polygon class="cls-1" points="1333.53 345.03 1333.53 387.81 1361.51 387.81 1361.51 378.08 1333.53 345.03"/><polygon class="cls-1" points="698.27 404.41 686.14 392.98 710.08 392.7 768.04 252.21 781.83 252.21 719.21 404.41 698.27 404.41"/><path class="cls-1" d="M796.1,253.71h24.18c.44.07.66-.37.66,0V386.34q0,.75-.66.75H796.1a.66.66,0,0,1-.75-.75V302C795.41,301.56,795.66,253.71,796.1,253.71Z"/><polygon class="cls-1" points="809.61 403.05 798.06 392 826.8 392 826.7 254.41 834.82 262.62 834.82 404.41 810.92 404.41 809.61 403.05"/><path class="cls-1" d="M1010.29,253.71h24.18c.44.07.66-.37.66,0V386.34q0,.75-.66.75h-24.18a.66.66,0,0,1-.75-.75V302C1009.6,301.56,1009.85,253.71,1010.29,253.71Z"/><polygon class="cls-1" points="1023.8 403.05 1012.24 392 1039.07 392 1040.89 254.41 1049.01 262.62 1049.01 404.41 1025.11 404.41 1023.8 403.05"/><polygon class="cls-1" points="966.31 403.05 954.76 392 981.58 392 983.4 254.41 991.52 262.62 991.52 404.41 967.62 404.41 966.31 403.05"/><polygon class="cls-1" points="878.48 402.63 867.34 391.58 894.44 391.58 894.44 354.48 903.13 363.17 903.13 402.63 878.48 402.63"/><polygon class="cls-1" points="1348.43 402.63 1337.29 391.58 1364.39 391.58 1364.39 378.56 1373.08 387.25 1373.08 402.63 1348.43 402.63"/><polygon class="cls-1" points="1141.27 402.63 1130.13 391.58 1157.23 391.58 1157.23 331.81 1165.92 342.03 1165.92 402.63 1141.27 402.63"/><polygon class="cls-1" points="1216.62 260.92 1216.62 338.79 1225.42 347.59 1225.42 269.23 1216.62 260.92"/><path class="cls-1" d="M1215.87,387.66s26.5,12.27,54.42,1.22c19.07-7.55,32-25.4,34.62-45.75a97.39,97.39,0,0,0,.78-12.51c0-.41,0-.82,0-1.23-.51-23.44,0-71.77,0-71.77l8.88,8.88v79.26c0,14.58-6.67,26.23-16.41,37.07-8.73,9.71-30.31,20.56-45.43,20.56,0,0-13.66.4-25.63-4.21Z"/><polygon class="cls-1" points="1359.91 322.68 1359.84 343.07 1419.77 403.77 1444.7 403.77 1455.76 392.72 1425.25 392.72 1371.92 334.95 1372 310.09 1359.91 322.68"/><path class="cls-1" d="M374.85,475.16A140.08,140.08,0,0,0,409,471L223.6,607A140.46,140.46,0,1,1,57.36,380.57l71.4-52.41L291.85,447.9A139.94,139.94,0,0,0,374.85,475.16Z"/><path class="cls-1" d="M461.86,202.14,223.6,27.23A140.46,140.46,0,1,0,57.36,253.68L295.65,428.59A140.45,140.45,0,1,0,461.86,202.14ZM364.27,404.37q-16,0-23.87-8.36t-7.88-25.32q0-14.06,5.93-21.45t16.36-7.4a41.11,41.11,0,0,1,7,.49v-34.9q0-6.54-15.51-10.42l-6.78-7.76V260.9q0-16.48,16.72-16.48,10.91,0,17.57,3.75t6.91,3.76a.64.64,0,0,0,.72-.73V229.87h25.69v25.45q0,10.67-5.45,15.76t-15.39,5.08H383.9c-.49,0-2.3-.8-5.46-2.42a19.57,19.57,0,0,0-8.84-2.42,7.82,7.82,0,0,0-4,.72,3,3,0,0,0-1.09,2.67v7a58.7,58.7,0,0,1,21.33,8.12q9.93,6.18,9.93,14.42v70q0,14.79-8.12,22.42T364.27,404.37Zm43.81-30.07q0,14.79-8.13,22.42c-4.1,3.86-9.59,6.21-16.43,7.13a41.83,41.83,0,0,0,9.31-5.9c5.81-4.7,7.64-13.79,7.64-23.65v-70a18.46,18.46,0,0,0-9.18-15.81,61.64,61.64,0,0,0-14.94-6.31c7.58,1.3,15.19,3.57,21.79,7.69s9.94,8.93,9.94,14.43Zm11.39-119c0,7.09-1.81,12.35-5.44,15.73-3.26,3-7.69,4.7-13.31,5a37.94,37.94,0,0,0,5.73-3.94c3.65-3.38,5.42-9.72,5.42-16.81V229.87h7.6Z"/><path class="cls-1" d="M354.94,363.05q-1.81,2.55-1.82,8.36,0,6.55,1.33,9.58a4.59,4.59,0,0,0,4.48,3c3.4,0,5.09-1.86,5.09-5.58V360.51h-2.66C358.29,360.51,356.15,361.35,354.94,363.05Z"/></g></g></svg>